<svg width="117" height="19" viewBox="0 0 117 19" fill="none" xmlns="http://www.w3.org/2000/svg">
<path d="M11.9727 15.407V18.1492H2.89062V15.407H11.9727ZM4.03906 1.08667V18.1492H0.523438V1.08667H4.03906ZM10.7891 8.03589V10.7078H2.89062V8.03589H10.7891ZM11.9609 1.08667V3.84058H2.89062V1.08667H11.9609ZM17.5391 1.08667V18.1492H14.0234V1.08667H17.5391ZM24.3359 8.37573V11.1179H16.5781V8.37573H24.3359ZM25.1562 1.08667V3.84058H16.5781V1.08667H25.1562ZM30.7109 1.08667V18.1492H27.1953V1.08667H30.7109ZM37.5078 8.37573V11.1179H29.75V8.37573H37.5078ZM38.3281 1.08667V3.84058H29.75V1.08667H38.3281ZM51.8164 15.407V18.1492H42.7344V15.407H51.8164ZM43.8828 1.08667V18.1492H40.3672V1.08667H43.8828ZM50.6328 8.03589V10.7078H42.7344V8.03589H50.6328ZM51.8047 1.08667V3.84058H42.7344V1.08667H51.8047ZM63.7578 12.489H67.2617C67.1914 13.6375 66.875 14.657 66.3125 15.5476C65.7578 16.4382 64.9805 17.1335 63.9805 17.6335C62.9883 18.1335 61.793 18.3835 60.3945 18.3835C59.3008 18.3835 58.3203 18.196 57.4531 17.821C56.5859 17.4382 55.8438 16.8914 55.2266 16.1804C54.6172 15.4695 54.1523 14.6101 53.832 13.6023C53.5117 12.5945 53.3516 11.4656 53.3516 10.2156V9.03198C53.3516 7.78198 53.5156 6.65308 53.8438 5.64526C54.1797 4.62964 54.6562 3.76636 55.2734 3.05542C55.8984 2.34448 56.6445 1.79761 57.5117 1.41479C58.3789 1.03198 59.3477 0.840576 60.418 0.840576C61.8398 0.840576 63.0391 1.09839 64.0156 1.61401C65 2.12964 65.7617 2.84058 66.3008 3.74683C66.8477 4.65308 67.1758 5.68433 67.2852 6.84058H63.7695C63.7305 6.15308 63.5938 5.57104 63.3594 5.09448C63.125 4.61011 62.7695 4.24683 62.293 4.00464C61.8242 3.75464 61.1992 3.62964 60.418 3.62964C59.832 3.62964 59.3203 3.73901 58.8828 3.95776C58.4453 4.17651 58.0781 4.50854 57.7812 4.95386C57.4844 5.39917 57.2617 5.96167 57.1133 6.64136C56.9727 7.31323 56.9023 8.10229 56.9023 9.00854V10.2156C56.9023 11.0984 56.9688 11.8757 57.1016 12.5476C57.2344 13.2117 57.4375 13.7742 57.7109 14.2351C57.9922 14.6882 58.3516 15.032 58.7891 15.2664C59.2344 15.4929 59.7695 15.6062 60.3945 15.6062C61.1289 15.6062 61.7344 15.489 62.2109 15.2546C62.6875 15.0203 63.0508 14.6726 63.3008 14.2117C63.5586 13.7507 63.7109 13.1765 63.7578 12.489ZM76.8477 1.08667V18.1492H73.3438V1.08667H76.8477ZM82.0977 1.08667V3.84058H68.1758V1.08667H82.0977ZM81.1719 16.5203C81.1719 16.0203 81.3438 15.6023 81.6875 15.2664C82.0391 14.9304 82.5039 14.7625 83.082 14.7625C83.6602 14.7625 84.1211 14.9304 84.4648 15.2664C84.8164 15.6023 84.9922 16.0203 84.9922 16.5203C84.9922 17.0203 84.8164 17.4382 84.4648 17.7742C84.1211 18.1101 83.6602 18.2781 83.082 18.2781C82.5039 18.2781 82.0391 18.1101 81.6875 17.7742C81.3438 17.4382 81.1719 17.0203 81.1719 16.5203ZM97.6016 1.08667H101.105V12.3601C101.105 13.6726 100.824 14.7781 100.262 15.6765C99.707 16.575 98.9375 17.2507 97.9531 17.7039C96.9766 18.157 95.8516 18.3835 94.5781 18.3835C93.3047 18.3835 92.1719 18.157 91.1797 17.7039C90.1953 17.2507 89.4219 16.575 88.8594 15.6765C88.3047 14.7781 88.0273 13.6726 88.0273 12.3601V1.08667H91.543V12.3601C91.543 13.1257 91.6641 13.7507 91.9062 14.2351C92.1484 14.7195 92.4961 15.075 92.9492 15.3015C93.4102 15.5281 93.9531 15.6414 94.5781 15.6414C95.2188 15.6414 95.7617 15.5281 96.207 15.3015C96.6602 15.075 97.0039 14.7195 97.2383 14.2351C97.4805 13.7507 97.6016 13.1257 97.6016 12.3601V1.08667ZM116.34 15.407V18.1492H104.246V15.407H116.34ZM116.164 3.0437L105.805 18.1492H103.332V16.1335L113.773 1.08667H116.164V3.0437ZM114.957 1.08667V3.84058H103.344V1.08667H114.957Z" fill="#0768B5"/>
</svg>
